<svg xmlns="http://www.w3.org/2000/svg" xmlns:xlink="http://www.w3.org/1999/xlink" width="847" zoomAndPan="magnify" viewBox="0 0 635.25 171.000002" height="228" preserveAspectRatio="xMidYMid meet" version="1.0"><defs><g/><clipPath id="c5f6279811"><path d="M 1.867188 20.152344 L 127.878906 20.152344 L 127.878906 145.417969 L 1.867188 145.417969 Z M 1.867188 20.152344 " clip-rule="nonzero"/></clipPath><clipPath id="8a749a271f"><path d="M 13.738281 24.144531 C 6.621094 28.679688 1.902344 36.628906 1.902344 45.675781 L 1.902344 119.894531 C 1.902344 133.992188 13.355469 145.417969 27.484375 145.417969 L 101.867188 145.417969 C 115.996094 145.417969 127.449219 133.992188 127.449219 119.894531 L 127.449219 45.675781 C 127.449219 31.578125 115.996094 20.152344 101.867188 20.152344 L 40.644531 20.152344 L 122.898438 112.582031 C 90.265625 75.914062 29.894531 91.03125 41.847656 140.507812 Z M 13.738281 24.144531 " clip-rule="evenodd"/></clipPath></defs><g clip-path="url(#c5f6279811)"><g clip-path="url(#8a749a271f)"><path fill="currentColor" d="M 1.902344 20.152344 L 1.902344 145.417969 L 127.449219 145.417969 L 127.449219 20.152344 Z M 1.902344 20.152344 " fill-opacity="1" fill-rule="nonzero"/></g></g><g fill="currentColor" fill-opacity="1"><g transform="translate(172.526873, 79.684437)"><g><path d="M 4.6875 0 L 4.6875 -48.21875 L 13.5 -48.21875 L 13.5 -28.171875 L 35.125 -28.171875 L 35.125 -48.21875 L 43.9375 -48.21875 L 43.9375 0 L 35.125 0 L 35.125 -21 L 13.5 -21 L 13.5 0 Z M 4.6875 0 "/></g></g></g><g fill="currentColor" fill-opacity="1"><g transform="translate(221.1555, 79.684437)"><g><path d="M 20.875 0.828125 C 17.5625 0.828125 14.582031 0.0703125 11.9375 -1.4375 C 9.300781 -2.957031 7.210938 -5.0625 5.671875 -7.75 C 4.140625 -10.4375 3.375 -13.546875 3.375 -17.078125 C 3.375 -20.617188 4.15625 -23.726562 5.71875 -26.40625 C 7.28125 -29.09375 9.378906 -31.191406 12.015625 -32.703125 C 14.660156 -34.222656 17.632812 -34.984375 20.9375 -34.984375 C 24.195312 -34.984375 27.144531 -34.222656 29.78125 -32.703125 C 32.425781 -31.191406 34.515625 -29.09375 36.046875 -26.40625 C 37.585938 -23.726562 38.359375 -20.617188 38.359375 -17.078125 C 38.359375 -13.546875 37.585938 -10.4375 36.046875 -7.75 C 34.515625 -5.0625 32.414062 -2.957031 29.75 -1.4375 C 27.09375 0.0703125 24.132812 0.828125 20.875 0.828125 Z M 20.875 -6.8125 C 23.164062 -6.8125 25.160156 -7.671875 26.859375 -9.390625 C 28.554688 -11.117188 29.40625 -13.679688 29.40625 -17.078125 C 29.40625 -20.472656 28.554688 -23.03125 26.859375 -24.75 C 25.160156 -26.476562 23.1875 -27.34375 20.9375 -27.34375 C 18.59375 -27.34375 16.582031 -26.476562 14.90625 -24.75 C 13.226562 -23.03125 12.390625 -20.472656 12.390625 -17.078125 C 12.390625 -13.679688 13.226562 -11.117188 14.90625 -9.390625 C 16.582031 -7.671875 18.570312 -6.8125 20.875 -6.8125 Z M 20.875 -6.8125 "/></g></g></g><g fill="currentColor" fill-opacity="1"><g transform="translate(262.89622, 79.684437)"><g><path d="M 4.484375 0 L 4.484375 -34.15625 L 12.265625 -34.15625 L 13.015625 -29.546875 C 14.117188 -31.203125 15.578125 -32.519531 17.390625 -33.5 C 19.203125 -34.488281 21.300781 -34.984375 23.6875 -34.984375 C 28.96875 -34.984375 32.710938 -32.941406 34.921875 -28.859375 C 36.160156 -30.742188 37.820312 -32.234375 39.90625 -33.328125 C 42 -34.429688 44.285156 -34.984375 46.765625 -34.984375 C 51.222656 -34.984375 54.644531 -33.648438 57.03125 -30.984375 C 59.414062 -28.328125 60.609375 -24.425781 60.609375 -19.28125 L 60.609375 0 L 51.796875 0 L 51.796875 -18.453125 C 51.796875 -21.390625 51.234375 -23.640625 50.109375 -25.203125 C 48.984375 -26.765625 47.25 -27.546875 44.90625 -27.546875 C 42.519531 -27.546875 40.601562 -26.671875 39.15625 -24.921875 C 37.707031 -23.179688 36.984375 -20.75 36.984375 -17.625 L 36.984375 0 L 28.171875 0 L 28.171875 -18.453125 C 28.171875 -21.390625 27.59375 -23.640625 26.4375 -25.203125 C 25.289062 -26.765625 23.523438 -27.546875 21.140625 -27.546875 C 18.796875 -27.546875 16.898438 -26.671875 15.453125 -24.921875 C 14.015625 -23.179688 13.296875 -20.75 13.296875 -17.625 L 13.296875 0 Z M 4.484375 0 "/></g></g></g><g fill="currentColor" fill-opacity="1"><g transform="translate(327.435901, 79.684437)"><g><path d="M 21.078125 0.828125 C 17.628906 0.828125 14.570312 0.09375 11.90625 -1.375 C 9.25 -2.84375 7.160156 -4.910156 5.640625 -7.578125 C 4.128906 -10.242188 3.375 -13.320312 3.375 -16.8125 C 3.375 -20.34375 4.117188 -23.484375 5.609375 -26.234375 C 7.109375 -28.992188 9.175781 -31.140625 11.8125 -32.671875 C 14.445312 -34.210938 17.554688 -34.984375 21.140625 -34.984375 C 24.492188 -34.984375 27.457031 -34.25 30.03125 -32.78125 C 32.601562 -31.3125 34.609375 -29.300781 36.046875 -26.75 C 37.492188 -24.207031 38.21875 -21.375 38.21875 -18.25 C 38.21875 -17.75 38.207031 -17.222656 38.1875 -16.671875 C 38.164062 -16.117188 38.132812 -15.546875 38.09375 -14.953125 L 12.125 -14.953125 C 12.300781 -12.285156 13.226562 -10.191406 14.90625 -8.671875 C 16.582031 -7.160156 18.613281 -6.40625 21 -6.40625 C 22.789062 -6.40625 24.296875 -6.804688 25.515625 -7.609375 C 26.734375 -8.410156 27.640625 -9.457031 28.234375 -10.75 L 37.1875 -10.75 C 36.550781 -8.582031 35.484375 -6.613281 33.984375 -4.84375 C 32.492188 -3.082031 30.65625 -1.695312 28.46875 -0.6875 C 26.289062 0.320312 23.828125 0.828125 21.078125 0.828125 Z M 21.140625 -27.828125 C 18.984375 -27.828125 17.078125 -27.21875 15.421875 -26 C 13.773438 -24.78125 12.722656 -22.929688 12.265625 -20.453125 L 29.265625 -20.453125 C 29.128906 -22.703125 28.300781 -24.492188 26.78125 -25.828125 C 25.269531 -27.160156 23.390625 -27.828125 21.140625 -27.828125 Z M 21.140625 -27.828125 "/></g></g></g><g fill="currentColor" fill-opacity="1"><g transform="translate(368.625588, 79.684437)"><g><path d="M 18.59375 0.828125 C 15.5625 0.828125 12.894531 0.332031 10.59375 -0.65625 C 8.300781 -1.644531 6.46875 -3.007812 5.09375 -4.75 C 3.71875 -6.5 2.894531 -8.519531 2.625 -10.8125 L 11.5 -10.8125 C 11.78125 -9.476562 12.523438 -8.335938 13.734375 -7.390625 C 14.953125 -6.453125 16.523438 -5.984375 18.453125 -5.984375 C 20.378906 -5.984375 21.789062 -6.375 22.6875 -7.15625 C 23.582031 -7.9375 24.03125 -8.832031 24.03125 -9.84375 C 24.03125 -11.3125 23.390625 -12.3125 22.109375 -12.84375 C 20.828125 -13.375 19.035156 -13.890625 16.734375 -14.390625 C 15.265625 -14.710938 13.769531 -15.101562 12.25 -15.5625 C 10.738281 -16.019531 9.351562 -16.601562 8.09375 -17.3125 C 6.832031 -18.03125 5.8125 -18.953125 5.03125 -20.078125 C 4.25 -21.203125 3.859375 -22.59375 3.859375 -24.25 C 3.859375 -27.28125 5.0625 -29.828125 7.46875 -31.890625 C 9.882812 -33.953125 13.269531 -34.984375 17.625 -34.984375 C 21.664062 -34.984375 24.890625 -34.039062 27.296875 -32.15625 C 29.710938 -30.28125 31.148438 -27.6875 31.609375 -24.375 L 23.28125 -24.375 C 22.769531 -26.90625 20.863281 -28.171875 17.5625 -28.171875 C 15.90625 -28.171875 14.628906 -27.847656 13.734375 -27.203125 C 12.835938 -26.554688 12.390625 -25.753906 12.390625 -24.796875 C 12.390625 -23.785156 13.054688 -22.976562 14.390625 -22.375 C 15.722656 -21.78125 17.492188 -21.234375 19.703125 -20.734375 C 22.085938 -20.179688 24.273438 -19.570312 26.265625 -18.90625 C 28.265625 -18.238281 29.863281 -17.25 31.0625 -15.9375 C 32.257812 -14.632812 32.859375 -12.765625 32.859375 -10.328125 C 32.898438 -8.210938 32.347656 -6.304688 31.203125 -4.609375 C 30.054688 -2.910156 28.398438 -1.578125 26.234375 -0.609375 C 24.078125 0.347656 21.53125 0.828125 18.59375 0.828125 Z M 18.59375 0.828125 "/></g></g></g><g fill="currentColor" fill-opacity="1"><g transform="translate(404.787094, 79.684437)"><g><path d="M 19.703125 0 C 16.117188 0 13.25 -0.867188 11.09375 -2.609375 C 8.9375 -4.359375 7.859375 -7.460938 7.859375 -11.921875 L 7.859375 -26.796875 L 2 -26.796875 L 2 -34.15625 L 7.859375 -34.15625 L 8.890625 -43.328125 L 16.671875 -43.328125 L 16.671875 -34.15625 L 25.890625 -34.15625 L 25.890625 -26.796875 L 16.671875 -26.796875 L 16.671875 -11.84375 C 16.671875 -10.1875 17.023438 -9.046875 17.734375 -8.421875 C 18.441406 -7.804688 19.671875 -7.5 21.421875 -7.5 L 25.6875 -7.5 L 25.6875 0 Z M 19.703125 0 "/></g></g></g><g fill="currentColor" fill-opacity="1"><g transform="translate(433.785178, 79.684437)"><g><path d="M 17.28125 0.828125 C 13.007812 0.828125 9.710938 -0.5 7.390625 -3.15625 C 5.078125 -5.820312 3.921875 -9.726562 3.921875 -14.875 L 3.921875 -34.15625 L 12.671875 -34.15625 L 12.671875 -15.703125 C 12.671875 -12.765625 13.265625 -10.515625 14.453125 -8.953125 C 15.648438 -7.390625 17.535156 -6.609375 20.109375 -6.609375 C 22.546875 -6.609375 24.554688 -7.476562 26.140625 -9.21875 C 27.722656 -10.96875 28.515625 -13.40625 28.515625 -16.53125 L 28.515625 -34.15625 L 37.328125 -34.15625 L 37.328125 0 L 29.546875 0 L 28.859375 -5.78125 C 27.804688 -3.757812 26.28125 -2.148438 24.28125 -0.953125 C 22.28125 0.234375 19.945312 0.828125 17.28125 0.828125 Z M 17.28125 0.828125 "/></g></g></g><g fill="currentColor" fill-opacity="1"><g transform="translate(475.66365, 79.684437)"><g><path d="M 20.1875 0.828125 C 16.96875 0.828125 14.09375 0.046875 11.5625 -1.515625 C 9.039062 -3.078125 7.046875 -5.210938 5.578125 -7.921875 C 4.109375 -10.628906 3.375 -13.707031 3.375 -17.15625 C 3.375 -20.59375 4.109375 -23.65625 5.578125 -26.34375 C 7.046875 -29.03125 9.039062 -31.140625 11.5625 -32.671875 C 14.09375 -34.210938 16.96875 -34.984375 20.1875 -34.984375 C 22.75 -34.984375 24.992188 -34.5 26.921875 -33.53125 C 28.859375 -32.570312 30.421875 -31.222656 31.609375 -29.484375 L 31.609375 -49.59375 L 40.421875 -49.59375 L 40.421875 0 L 32.578125 0 L 31.609375 -4.890625 C 30.503906 -3.378906 29.046875 -2.046875 27.234375 -0.890625 C 25.421875 0.253906 23.070312 0.828125 20.1875 0.828125 Z M 22.046875 -6.890625 C 24.890625 -6.890625 27.21875 -7.84375 29.03125 -9.75 C 30.84375 -11.65625 31.75 -14.097656 31.75 -17.078125 C 31.75 -20.066406 30.84375 -22.515625 29.03125 -24.421875 C 27.21875 -26.328125 24.890625 -27.28125 22.046875 -27.28125 C 19.242188 -27.28125 16.921875 -26.335938 15.078125 -24.453125 C 13.242188 -22.566406 12.328125 -20.132812 12.328125 -17.15625 C 12.328125 -14.164062 13.242188 -11.707031 15.078125 -9.78125 C 16.921875 -7.851562 19.242188 -6.890625 22.046875 -6.890625 Z M 22.046875 -6.890625 "/></g></g></g><g fill="currentColor" fill-opacity="1"><g transform="translate(520.572789, 79.684437)"><g><path d="M 9.234375 -39.46875 C 7.617188 -39.46875 6.296875 -39.945312 5.265625 -40.90625 C 4.234375 -41.875 3.71875 -43.09375 3.71875 -44.5625 C 3.71875 -46.03125 4.234375 -47.234375 5.265625 -48.171875 C 6.296875 -49.117188 7.617188 -49.59375 9.234375 -49.59375 C 10.835938 -49.59375 12.15625 -49.117188 13.1875 -48.171875 C 14.21875 -47.234375 14.734375 -46.03125 14.734375 -44.5625 C 14.734375 -43.09375 14.21875 -41.875 13.1875 -40.90625 C 12.15625 -39.945312 10.835938 -39.46875 9.234375 -39.46875 Z M 4.828125 0 L 4.828125 -34.15625 L 13.640625 -34.15625 L 13.640625 0 Z M 4.828125 0 "/></g></g></g><g fill="currentColor" fill-opacity="1"><g transform="translate(538.963503, 79.684437)"><g><path d="M 20.875 0.828125 C 17.5625 0.828125 14.582031 0.0703125 11.9375 -1.4375 C 9.300781 -2.957031 7.210938 -5.0625 5.671875 -7.75 C 4.140625 -10.4375 3.375 -13.546875 3.375 -17.078125 C 3.375 -20.617188 4.15625 -23.726562 5.71875 -26.40625 C 7.28125 -29.09375 9.378906 -31.191406 12.015625 -32.703125 C 14.660156 -34.222656 17.632812 -34.984375 20.9375 -34.984375 C 24.195312 -34.984375 27.144531 -34.222656 29.78125 -32.703125 C 32.425781 -31.191406 34.515625 -29.09375 36.046875 -26.40625 C 37.585938 -23.726562 38.359375 -20.617188 38.359375 -17.078125 C 38.359375 -13.546875 37.585938 -10.4375 36.046875 -7.75 C 34.515625 -5.0625 32.414062 -2.957031 29.75 -1.4375 C 27.09375 0.0703125 24.132812 0.828125 20.875 0.828125 Z M 20.875 -6.8125 C 23.164062 -6.8125 25.160156 -7.671875 26.859375 -9.390625 C 28.554688 -11.117188 29.40625 -13.679688 29.40625 -17.078125 C 29.40625 -20.472656 28.554688 -23.03125 26.859375 -24.75 C 25.160156 -26.476562 23.1875 -27.34375 20.9375 -27.34375 C 18.59375 -27.34375 16.582031 -26.476562 14.90625 -24.75 C 13.226562 -23.03125 12.390625 -20.472656 12.390625 -17.078125 C 12.390625 -13.679688 13.226562 -11.117188 14.90625 -9.390625 C 16.582031 -7.671875 18.570312 -6.8125 20.875 -6.8125 Z M 20.875 -6.8125 "/></g></g></g><g fill="currentColor" fill-opacity="1"><g transform="translate(172.526873, 135.148568)"><g><path d="M 4.6875 0 L 4.6875 -48.21875 L 36.15625 -48.21875 L 36.15625 -41.125 L 13.5 -41.125 L 13.5 -27.890625 L 34.09375 -27.890625 L 34.09375 -21 L 13.5 -21 L 13.5 -7.09375 L 36.15625 -7.09375 L 36.15625 0 Z M 4.6875 0 "/></g></g></g><g fill="currentColor" fill-opacity="1"><g transform="translate(212.338979, 135.148568)"><g><path d="M 1.234375 0 L 13.640625 -17.078125 L 1.234375 -34.15625 L 10.671875 -34.15625 L 19.359375 -22.046875 L 27.96875 -34.15625 L 37.46875 -34.15625 L 25 -17.078125 L 37.46875 0 L 27.96875 0 L 19.359375 -12.125 L 10.671875 0 Z M 1.234375 0 "/></g></g></g><g fill="currentColor" fill-opacity="1"><g transform="translate(250.980133, 135.148568)"><g><path d="M 4.484375 15.15625 L 4.484375 -34.15625 L 12.328125 -34.15625 L 13.296875 -29.265625 C 14.398438 -30.785156 15.859375 -32.117188 17.671875 -33.265625 C 19.484375 -34.410156 21.832031 -34.984375 24.71875 -34.984375 C 27.9375 -34.984375 30.804688 -34.203125 33.328125 -32.640625 C 35.859375 -31.085938 37.859375 -28.953125 39.328125 -26.234375 C 40.796875 -23.523438 41.53125 -20.453125 41.53125 -17.015625 C 41.53125 -13.566406 40.796875 -10.5 39.328125 -7.8125 C 37.859375 -5.125 35.859375 -3.007812 33.328125 -1.46875 C 30.804688 0.0625 27.9375 0.828125 24.71875 0.828125 C 22.15625 0.828125 19.90625 0.347656 17.96875 -0.609375 C 16.039062 -1.578125 14.484375 -2.9375 13.296875 -4.6875 L 13.296875 15.15625 Z M 22.859375 -6.890625 C 25.660156 -6.890625 27.976562 -7.828125 29.8125 -9.703125 C 31.65625 -11.585938 32.578125 -14.023438 32.578125 -17.015625 C 32.578125 -19.992188 31.65625 -22.445312 29.8125 -24.375 C 27.976562 -26.3125 25.660156 -27.28125 22.859375 -27.28125 C 20.015625 -27.28125 17.6875 -26.328125 15.875 -24.421875 C 14.0625 -22.515625 13.15625 -20.066406 13.15625 -17.078125 C 13.15625 -14.097656 14.0625 -11.65625 15.875 -9.75 C 17.6875 -7.84375 20.015625 -6.890625 22.859375 -6.890625 Z M 22.859375 -6.890625 "/></g></g></g><g fill="currentColor" fill-opacity="1"><g transform="translate(295.889283, 135.148568)"><g><path d="M 21.078125 0.828125 C 17.628906 0.828125 14.570312 0.09375 11.90625 -1.375 C 9.25 -2.84375 7.160156 -4.910156 5.640625 -7.578125 C 4.128906 -10.242188 3.375 -13.320312 3.375 -16.8125 C 3.375 -20.34375 4.117188 -23.484375 5.609375 -26.234375 C 7.109375 -28.992188 9.175781 -31.140625 11.8125 -32.671875 C 14.445312 -34.210938 17.554688 -34.984375 21.140625 -34.984375 C 24.492188 -34.984375 27.457031 -34.25 30.03125 -32.78125 C 32.601562 -31.3125 34.609375 -29.300781 36.046875 -26.75 C 37.492188 -24.207031 38.21875 -21.375 38.21875 -18.25 C 38.21875 -17.75 38.207031 -17.222656 38.1875 -16.671875 C 38.164062 -16.117188 38.132812 -15.546875 38.09375 -14.953125 L 12.125 -14.953125 C 12.300781 -12.285156 13.226562 -10.191406 14.90625 -8.671875 C 16.582031 -7.160156 18.613281 -6.40625 21 -6.40625 C 22.789062 -6.40625 24.296875 -6.804688 25.515625 -7.609375 C 26.734375 -8.410156 27.640625 -9.457031 28.234375 -10.75 L 37.1875 -10.75 C 36.550781 -8.582031 35.484375 -6.613281 33.984375 -4.84375 C 32.492188 -3.082031 30.65625 -1.695312 28.46875 -0.6875 C 26.289062 0.320312 23.828125 0.828125 21.078125 0.828125 Z M 21.140625 -27.828125 C 18.984375 -27.828125 17.078125 -27.21875 15.421875 -26 C 13.773438 -24.78125 12.722656 -22.929688 12.265625 -20.453125 L 29.265625 -20.453125 C 29.128906 -22.703125 28.300781 -24.492188 26.78125 -25.828125 C 25.269531 -27.160156 23.390625 -27.828125 21.140625 -27.828125 Z M 21.140625 -27.828125 "/></g></g></g><g fill="currentColor" fill-opacity="1"><g transform="translate(337.07897, 135.148568)"><g><path d="M 4.484375 0 L 4.484375 -34.15625 L 12.328125 -34.15625 L 13.15625 -27.75 C 14.394531 -29.957031 16.082031 -31.710938 18.21875 -33.015625 C 20.351562 -34.328125 22.867188 -34.984375 25.765625 -34.984375 L 25.765625 -25.6875 L 23.28125 -25.6875 C 21.351562 -25.6875 19.628906 -25.390625 18.109375 -24.796875 C 16.597656 -24.203125 15.414062 -23.164062 14.5625 -21.6875 C 13.71875 -20.21875 13.296875 -18.175781 13.296875 -15.5625 L 13.296875 0 Z M 4.484375 0 "/></g></g></g><g fill="currentColor" fill-opacity="1"><g transform="translate(364.35508, 135.148568)"><g><path d="M 9.234375 -39.46875 C 7.617188 -39.46875 6.296875 -39.945312 5.265625 -40.90625 C 4.234375 -41.875 3.71875 -43.09375 3.71875 -44.5625 C 3.71875 -46.03125 4.234375 -47.234375 5.265625 -48.171875 C 6.296875 -49.117188 7.617188 -49.59375 9.234375 -49.59375 C 10.835938 -49.59375 12.15625 -49.117188 13.1875 -48.171875 C 14.21875 -47.234375 14.734375 -46.03125 14.734375 -44.5625 C 14.734375 -43.09375 14.21875 -41.875 13.1875 -40.90625 C 12.15625 -39.945312 10.835938 -39.46875 9.234375 -39.46875 Z M 4.828125 0 L 4.828125 -34.15625 L 13.640625 -34.15625 L 13.640625 0 Z M 4.828125 0 "/></g></g></g><g fill="currentColor" fill-opacity="1"><g transform="translate(382.745794, 135.148568)"><g><path d="M 4.484375 0 L 4.484375 -34.15625 L 12.265625 -34.15625 L 13.015625 -29.546875 C 14.117188 -31.203125 15.578125 -32.519531 17.390625 -33.5 C 19.203125 -34.488281 21.300781 -34.984375 23.6875 -34.984375 C 28.96875 -34.984375 32.710938 -32.941406 34.921875 -28.859375 C 36.160156 -30.742188 37.820312 -32.234375 39.90625 -33.328125 C 42 -34.429688 44.285156 -34.984375 46.765625 -34.984375 C 51.222656 -34.984375 54.644531 -33.648438 57.03125 -30.984375 C 59.414062 -28.328125 60.609375 -24.425781 60.609375 -19.28125 L 60.609375 0 L 51.796875 0 L 51.796875 -18.453125 C 51.796875 -21.390625 51.234375 -23.640625 50.109375 -25.203125 C 48.984375 -26.765625 47.25 -27.546875 44.90625 -27.546875 C 42.519531 -27.546875 40.601562 -26.671875 39.15625 -24.921875 C 37.707031 -23.179688 36.984375 -20.75 36.984375 -17.625 L 36.984375 0 L 28.171875 0 L 28.171875 -18.453125 C 28.171875 -21.390625 27.59375 -23.640625 26.4375 -25.203125 C 25.289062 -26.765625 23.523438 -27.546875 21.140625 -27.546875 C 18.796875 -27.546875 16.898438 -26.671875 15.453125 -24.921875 C 14.015625 -23.179688 13.296875 -20.75 13.296875 -17.625 L 13.296875 0 Z M 4.484375 0 "/></g></g></g><g fill="currentColor" fill-opacity="1"><g transform="translate(447.285487, 135.148568)"><g><path d="M 21.078125 0.828125 C 17.628906 0.828125 14.570312 0.09375 11.90625 -1.375 C 9.25 -2.84375 7.160156 -4.910156 5.640625 -7.578125 C 4.128906 -10.242188 3.375 -13.320312 3.375 -16.8125 C 3.375 -20.34375 4.117188 -23.484375 5.609375 -26.234375 C 7.109375 -28.992188 9.175781 -31.140625 11.8125 -32.671875 C 14.445312 -34.210938 17.554688 -34.984375 21.140625 -34.984375 C 24.492188 -34.984375 27.457031 -34.25 30.03125 -32.78125 C 32.601562 -31.3125 34.609375 -29.300781 36.046875 -26.75 C 37.492188 -24.207031 38.21875 -21.375 38.21875 -18.25 C 38.21875 -17.75 38.207031 -17.222656 38.1875 -16.671875 C 38.164062 -16.117188 38.132812 -15.546875 38.09375 -14.953125 L 12.125 -14.953125 C 12.300781 -12.285156 13.226562 -10.191406 14.90625 -8.671875 C 16.582031 -7.160156 18.613281 -6.40625 21 -6.40625 C 22.789062 -6.40625 24.296875 -6.804688 25.515625 -7.609375 C 26.734375 -8.410156 27.640625 -9.457031 28.234375 -10.75 L 37.1875 -10.75 C 36.550781 -8.582031 35.484375 -6.613281 33.984375 -4.84375 C 32.492188 -3.082031 30.65625 -1.695312 28.46875 -0.6875 C 26.289062 0.320312 23.828125 0.828125 21.078125 0.828125 Z M 21.140625 -27.828125 C 18.984375 -27.828125 17.078125 -27.21875 15.421875 -26 C 13.773438 -24.78125 12.722656 -22.929688 12.265625 -20.453125 L 29.265625 -20.453125 C 29.128906 -22.703125 28.300781 -24.492188 26.78125 -25.828125 C 25.269531 -27.160156 23.390625 -27.828125 21.140625 -27.828125 Z M 21.140625 -27.828125 "/></g></g></g><g fill="currentColor" fill-opacity="1"><g transform="translate(488.475173, 135.148568)"><g><path d="M 4.484375 0 L 4.484375 -34.15625 L 12.265625 -34.15625 L 12.953125 -28.375 C 14.003906 -30.394531 15.53125 -32 17.53125 -33.1875 C 19.53125 -34.382812 21.882812 -34.984375 24.59375 -34.984375 C 28.8125 -34.984375 32.09375 -33.648438 34.4375 -30.984375 C 36.78125 -28.328125 37.953125 -24.425781 37.953125 -19.28125 L 37.953125 0 L 29.140625 0 L 29.140625 -18.453125 C 29.140625 -21.390625 28.539062 -23.640625 27.34375 -25.203125 C 26.144531 -26.765625 24.285156 -27.546875 21.765625 -27.546875 C 19.285156 -27.546875 17.253906 -26.671875 15.671875 -24.921875 C 14.085938 -23.179688 13.296875 -20.75 13.296875 -17.625 L 13.296875 0 Z M 4.484375 0 "/></g></g></g><g fill="currentColor" fill-opacity="1"><g transform="translate(530.353646, 135.148568)"><g><path d="M 19.703125 0 C 16.117188 0 13.25 -0.867188 11.09375 -2.609375 C 8.9375 -4.359375 7.859375 -7.460938 7.859375 -11.921875 L 7.859375 -26.796875 L 2 -26.796875 L 2 -34.15625 L 7.859375 -34.15625 L 8.890625 -43.328125 L 16.671875 -43.328125 L 16.671875 -34.15625 L 25.890625 -34.15625 L 25.890625 -26.796875 L 16.671875 -26.796875 L 16.671875 -11.84375 C 16.671875 -10.1875 17.023438 -9.046875 17.734375 -8.421875 C 18.441406 -7.804688 19.671875 -7.5 21.421875 -7.5 L 25.6875 -7.5 L 25.6875 0 Z M 19.703125 0 "/></g></g></g><g fill="currentColor" fill-opacity="1"><g transform="translate(559.351729, 135.148568)"><g><path d="M 16.25 0.828125 C 13.3125 0.828125 10.898438 0.359375 9.015625 -0.578125 C 7.140625 -1.523438 5.738281 -2.78125 4.8125 -4.34375 C 3.894531 -5.90625 3.4375 -7.625 3.4375 -9.5 C 3.4375 -12.664062 4.675781 -15.238281 7.15625 -17.21875 C 9.632812 -19.195312 13.359375 -20.1875 18.328125 -20.1875 L 27 -20.1875 L 27 -21 C 27 -23.34375 26.332031 -25.066406 25 -26.171875 C 23.664062 -27.273438 22.015625 -27.828125 20.046875 -27.828125 C 18.253906 -27.828125 16.691406 -27.398438 15.359375 -26.546875 C 14.023438 -25.703125 13.195312 -24.453125 12.875 -22.796875 L 4.265625 -22.796875 C 4.492188 -25.273438 5.332031 -27.429688 6.78125 -29.265625 C 8.226562 -31.109375 10.097656 -32.519531 12.390625 -33.5 C 14.691406 -34.488281 17.265625 -34.984375 20.109375 -34.984375 C 24.972656 -34.984375 28.804688 -33.765625 31.609375 -31.328125 C 34.410156 -28.898438 35.8125 -25.457031 35.8125 -21 L 35.8125 0 L 28.3125 0 L 27.484375 -5.515625 C 26.472656 -3.671875 25.0625 -2.148438 23.25 -0.953125 C 21.4375 0.234375 19.101562 0.828125 16.25 0.828125 Z M 18.25 -6.0625 C 20.78125 -6.0625 22.742188 -6.882812 24.140625 -8.53125 C 25.535156 -10.1875 26.421875 -12.234375 26.796875 -14.671875 L 19.28125 -14.671875 C 16.9375 -14.671875 15.257812 -14.242188 14.25 -13.390625 C 13.238281 -12.546875 12.734375 -11.503906 12.734375 -10.265625 C 12.734375 -8.929688 13.238281 -7.894531 14.25 -7.15625 C 15.257812 -6.425781 16.59375 -6.0625 18.25 -6.0625 Z M 18.25 -6.0625 "/></g></g></g><g fill="currentColor" fill-opacity="1"><g transform="translate(599.094958, 135.148568)"><g><path d="M 4.484375 0 L 4.484375 -49.59375 L 13.296875 -49.59375 L 13.296875 0 Z M 4.484375 0 "/></g></g></g></svg>